<svg xmlns="http://www.w3.org/2000/svg" width="21.525" height="12.574" viewBox="0 0 21.525 12.574">
  <g id="down-arrow" transform="translate(0 -127.245)">
    <g id="_x31_0_34_" transform="translate(0 127.244)">
      <g id="Group_19" data-name="Group 19" transform="translate(0)">
        <path id="Path_59" data-name="Path 59" d="M21.261,127.51a.9.9,0,0,0-1.274,0l-9.224,10.122L1.538,127.51a.9.9,0,0,0-1.274,0,.909.909,0,0,0,0,1.28l9.817,10.771a.888.888,0,0,0,.682.257.887.887,0,0,0,.682-.257l9.817-10.772A.907.907,0,0,0,21.261,127.51Z" transform="translate(0 -127.245)" fill="#a4b1cd"/>
      </g>
    </g>
  </g>
</svg>
