<svg xmlns="http://www.w3.org/2000/svg" width="917.227" height="625.917" viewBox="0 0 917.227 625.917">
  <g id="Thank_you" data-name="Thank you" transform="translate(-431.5 925)">
    <path id="Path_38" data-name="Path 38" d="M374.165,797.576c0,16.309-76.484,29.536-170.833,29.536S32.5,813.885,32.5,797.576c0-4.079,4.774-7.959,13.411-11.487,25.146-10.29,83.045-17.6,151.1-18.025q3.149-.024,6.322-.024C297.682,768.04,374.165,781.268,374.165,797.576Z" transform="translate(404.588 -1126.196)" fill="#a4b1cd"/>
    <path id="Path_39" data-name="Path 39" d="M200.4,768.07A96.988,96.988,0,0,1,49.3,786.1C74.446,775.805,132.345,768.493,200.4,768.07Z" transform="translate(401.199 -1126.202)" opacity="0.1"/>
    <ellipse id="Ellipse_15" data-name="Ellipse 15" cx="89.408" cy="95.794" rx="89.408" ry="95.794" transform="translate(431.5 -519.409)" fill="#a4b1cd"/>
    <path id="Path_40" data-name="Path 40" d="M274.927,141.3c12.677,48.836,53.572,80.4,91.434,70.573" transform="translate(355.686 -999.771)" fill="#192231"/>
    <path id="Path_41" data-name="Path 41" d="M388.589,202.113c-12.819-49.385,11-98.222,53.249-109.189" transform="translate(333.459 -990.013)" fill="#9fef00"/>
    <path id="Path_42" data-name="Path 42" d="M307.456,138.773c12.041,46.389,41.322,78.856,65.466,72.589" transform="translate(349.125 -999.262)" fill="#9fef00"/>
    <path id="Path_43" data-name="Path 43" d="M388.234,195.061c-16.38-63.1,9.883-124.423,58.72-137.1" transform="translate(333.813 -982.961)" fill="#192231"/>
    <path id="Path_44" data-name="Path 44" d="M371.616,232.163s9.637-2.821,12.023-5.665,13.756-8.453,15.35-5.3,18.915,12.839,7.971,15.775-25.927,4.906-29.311,3.885S371.616,232.163,371.616,232.163Z" transform="translate(336.183 -1015.7)" fill="#a8a8a8"/>
    <path id="Path_45" data-name="Path 45" d="M406.853,238.742c-10.944,2.935-25.927,4.906-29.311,3.885-2.577-.778-4.726-5.412-5.606-7.579l-.321.1s2.649,7.675,6.033,8.7,18.366-.95,29.311-3.885c3.159-.847,3.96-2.258,3.467-3.91C410.249,237.168,409.2,238.111,406.853,238.742Z" transform="translate(336.183 -1018.682)" opacity="0.2"/>
    <rect id="Rectangle_13" data-name="Rectangle 13" width="643.416" height="372.798" transform="translate(705.311 -824.354)" fill="#a4b1cd"/>
    <rect id="Rectangle_14" data-name="Rectangle 14" width="352.841" height="184.803" transform="translate(720.478 -711.197)" fill="#192231" opacity="0.3"/>
    <rect id="Rectangle_15" data-name="Rectangle 15" width="141.52" height="7.829" transform="translate(1100.461 -719.253)" fill="#111927"/>
    <rect id="Rectangle_16" data-name="Rectangle 16" width="205.957" height="7.829" transform="translate(1100.461 -704.8)" fill="#111927"/>
    <rect id="Rectangle_17" data-name="Rectangle 17" width="141.52" height="7.829" transform="translate(1100.461 -669.871)" fill="#111927"/>
    <rect id="Rectangle_18" data-name="Rectangle 18" width="141.52" height="7.829" transform="translate(1100.461 -612.059)" fill="#111927"/>
    <rect id="Rectangle_19" data-name="Rectangle 19" width="205.957" height="7.829" transform="translate(1100.461 -655.419)" fill="#111927"/>
    <rect id="Rectangle_20" data-name="Rectangle 20" width="205.957" height="7.829" transform="translate(1100.461 -640.966)" fill="#111927"/>
    <rect id="Rectangle_21" data-name="Rectangle 21" width="205.957" height="7.829" transform="translate(1100.461 -626.512)" fill="#111927"/>
    <rect id="Rectangle_22" data-name="Rectangle 22" width="74.072" height="20.475" transform="translate(1100.461 -577.131)" fill="#9fef00"/>
    <path id="Path_46" data-name="Path 46" d="M339.988,458.761s13.3-37.675,22.9-25.855-14.775,31.765-14.775,31.765Z" transform="translate(342.562 -1058.13)" fill="#a0616a"/>
    <path id="Path_47" data-name="Path 47" d="M254.61,419.605l8,2.964s3.82,16.981,2.343,19.936-2.216.739,0,6.648,8.865,21.423,9.6,23.639S317.4,458.757,317.4,450.631c0,0,8.865,10.342,13.3,12.558,0,0-48.755,35.458-55.4,39.891s-10.342,2.216-16.252-2.955-31.026-48.017-31.026-48.017Z" transform="translate(365.149 -1055.911)" fill="#0086ff"/>
    <path id="Path_48" data-name="Path 48" d="M286.109,746.918s-.739,8.126-2.216,8.865-12.558,19.207,0,22.9,19.945,2.216,22.9,3.694,54.665,4.432,55.4-3.694-25.116-9.6-25.116-9.6-23.639-15.513-27.333-23.639S286.109,746.918,286.109,746.918Z" transform="translate(355.073 -1120.979)" fill="#2f3e58"/>
    <path id="Path_49" data-name="Path 49" d="M96.773,766.623s-17.729,30.288-13.3,33.981,47.6,17.154,53.926,17.729c8.126.739,14.036-5.91,7.387-9.6s-20.684-19.207-20.684-24.378v-13.3Z" transform="translate(394.449 -1125.91)" fill="#2f3e58"/>
    <path id="Path_50" data-name="Path 50" d="M77.8,518.621s-15.513,19.207,8.865,50.233l40.629,51.71s-25.116,39.891-25.855,60.575-5.91,16.252-7.387,25.116-8.126,4.432-2.955,11.081,24.378,12.558,30.287,7.387,5.91-11.819,5.91-14.774S137.636,690,138.375,684.832s28.071-47.278,28.071-47.278,8.865-25.116-1.477-39.152-17.176-33.942-17.176-33.942,30.473,36.9,51.9,45.762c0,0,8.126,1.477,6.648,5.171s0,5.91,2.216,9.6,17.729,46.539,22.9,57.62,2.955,17.729,8.865,21.423,32.5.739,32.5-2.955-3.694-13.3-5.91-18.468-19.945-65.007-18.468-75.349-.739-24.378-11.819-30.287-67.223-53.926-70.178-53.926S77.8,518.621,77.8,518.621Z" transform="translate(396.431 -1075.884)" fill="#192231"/>
    <circle id="Ellipse_16" data-name="Ellipse 16" cx="31.026" cy="31.026" r="31.026" transform="translate(591.688 -735.294)" fill="#a0616a"/>
    <path id="Path_51" data-name="Path 51" d="M227.635,338.171s-9.6,16.99-21.423,19.207,31.026,36.2,31.026,36.2,10.342-32.5,19.207-33.981S227.635,338.171,227.635,338.171Z" transform="translate(369.963 -1039.484)" fill="#a0616a"/>
    <path id="Path_52" data-name="Path 52" d="M232.084,411.444c0,9.6-28.81,36.936-28.81,36.936l-27.333,22.9s-.739,8.126-3.694,8.865-6.648.739-3.694,5.171,10.342,14.036,3.694,15.513a54.3,54.3,0,0,1-6.05.576c-1.773.1-3.856.2-6.2.288-5.466.192-12.307.318-19.716.266q-3.158-.011-6.427-.074c-27.931-.554-60.287-3.767-57.642-14.353C80.647,469.8,77.692,463.893,87.3,454.29s25.116-42.846,25.116-42.846S143.438,359,169.293,359l5.37-1.411a12.3,12.3,0,0,1,13.422,5.156c5.186,7.9,13.364,19.761,18.143,23.587,7.387,5.91,8.54,1.67,8.54,1.67S232.084,401.841,232.084,411.444Z" transform="translate(395.801 -1043.318)" fill="#0086ff"/>
    <path id="Path_53" data-name="Path 53" d="M185.977,565.815s21.423,33.242,8.126,39.152-20.684-34.72-20.684-34.72Z" transform="translate(376.162 -1085.404)" fill="#a0616a"/>
    <path id="Path_54" data-name="Path 54" d="M234.821,320.421c1.191-.15,1.567-1.653,1.768-2.836,1.073-6.337,5.8-12.346,12.141-13.369a17.191,17.191,0,0,1,7.234.583,27.447,27.447,0,0,1,9.282,4.569c1.465,1.108,2.876,2.395,4.638,2.913,1.164.342,6.107,2.54,7.262,2.911,2.539.818,4.641,3.475,7.256,2.949,2.5-.5,3.452-3.525,3.854-6.045.916-5.742-2.37-14.309-5.638-19.119-2.48-3.65-6.676-5.75-10.871-7.117a78.109,78.109,0,0,0-15.077-3c-6.9-.815-14.049-1.247-20.662.886s-12.636,7.351-13.87,14.19c-.257,1.424-.305,2.884-.621,4.3-.769,3.447-3.049,6.344-4.38,9.615a18.514,18.514,0,0,0,.565,15.009c1.842,3.7,5.045,7.264,4.354,11.343l5.7-4.495a4.14,4.14,0,0,0,1.9-4.846l-.829-7.138a6.28,6.28,0,0,1,.37-3.859C231.734,313.439,232.835,320.67,234.821,320.421Z" transform="translate(367.61 -1028.193)" fill="#2f2e41"/>
    <path id="Path_55" data-name="Path 55" d="M165.44,475.644,172.4,504.58c-7.018.251-16.3.384-26.143.192-2.482-7.446-4.853-15.21-6.671-22.479-6.648-26.594,4.432-67.223,10.342-86.43s20.684-24.378,20.684-24.378S178,373.7,187.6,380.35,165.44,475.644,165.44,475.644Z" transform="translate(383.402 -1046.204)" opacity="0.1"/>
    <path id="Path_56" data-name="Path 56" d="M172.843,477.911l7.247,30.125c-1.773.1-3.856.2-6.2.288-5.466.192-12.307.318-19.716.266-2.667-7.912-5.245-16.259-7.188-24.03-6.648-26.594,4.432-67.223,10.342-86.43s18.837,1.847,18.837,1.847-5.171-12.558,4.432-5.91S172.843,477.911,172.843,477.911Z" transform="translate(381.909 -1049.948)" opacity="0.1"/>
    <path id="Path_57" data-name="Path 57" d="M174.312,369.634s-14.774,5.171-20.684,24.378-16.99,59.836-10.342,86.43,20.684,59.836,20.684,59.836,14.036-10.342,19.207-8.126l-14.036-58.359S200.906,385.147,191.3,378.5,174.312,369.634,174.312,369.634Z" transform="translate(382.656 -1045.831)" fill="#0086ff"/>
    <rect id="Rectangle_23" data-name="Rectangle 23" width="352.841" height="184.803" transform="translate(705.311 -730.356)" fill="#192231"/>
    <ellipse id="Ellipse_17" data-name="Ellipse 17" cx="39.928" cy="40.001" rx="39.928" ry="40.001" transform="translate(848.368 -674.337)" fill="#fff"/>
    <path id="Path_58" data-name="Path 58" d="M585.665,363.423a47.719,47.719,0,1,0,47.719,47.719,47.719,47.719,0,0,0-47.719-47.719Zm-9.8,73.161-24.456-24.456,6.859-6.86,17.619,17.619L613.08,385.7l6.86,6.86-44.071,44.025Z" transform="translate(302.631 -1044.578)" fill="#9fef00"/>
  </g>
</svg>
