<svg xmlns="http://www.w3.org/2000/svg" width="704.184" height="363.847" viewBox="0 0 704.184 363.847">
  <g id="Welcome" transform="translate(-324 932.38)">
    <ellipse id="Ellipse_1" data-name="Ellipse 1" cx="352.092" cy="9.849" rx="352.092" ry="9.849" transform="translate(324 -626.863)" fill="#a4b1cd"/>
    <path id="Path_1" data-name="Path 1" d="M826.493,463.277c-.445.006-.889.012-1.34.012s-.9-.006-1.34-.012c-23.569-.536-40.652-15.262-36.3-30.713l10.6-37.692,2.68-9.537,47.5.81,2.887,9.33L862.547,432.2C867.359,447.735,850.276,462.741,826.493,463.277Z" transform="translate(37.238 -1187.009)" fill="#192231"/>
    <path id="Path_2" data-name="Path 2" d="M854.145,395.475a52.434,52.434,0,0,1-53.07-.6l2.68-9.537,47.5.81Z" transform="translate(34.276 -1187.009)" opacity="0.2"/>
    <path id="Path_3" data-name="Path 3" d="M865.342,426.244c2.052-7.648,8.8-18.68,27.711-31.983,32.987-23.2,13.309-40.6,12.456-41.328-1.789-1.529-1.525-3.246.614-3.832a8.89,8.89,0,0,1,7.155,1.665c1.068.883,25.709,21.926-11.514,48.1-33.5,23.563-26.377,38.944-26.295,39.091.9,1.645-.542,2.961-3.218,2.944s-5.575-1.364-6.476-3.008C865.586,437.549,863.431,433.363,865.342,426.244Z" transform="translate(21.074 -1179.438)" fill="#192231"/>
    <path id="Path_4" data-name="Path 4" d="M806.095,481.562a5.481,5.481,0,0,1-5.481-5.481V452.33a5.481,5.481,0,1,1,10.962,0v23.752a5.481,5.481,0,0,1-5.481,5.481Z" transform="translate(34.372 -1199.801)" fill="#192231"/>
    <path id="Path_5" data-name="Path 5" d="M805.19,414.836a5.481,5.481,0,0,1-7.27,2.688L776.342,407.6a5.481,5.481,0,1,1,4.582-9.959l21.577,9.928a5.481,5.481,0,0,1,2.689,7.27Z" transform="translate(40.083 -1189.463)" fill="#192231"/>
    <path id="Path_6" data-name="Path 6" d="M856.7,414.836a5.481,5.481,0,0,0,7.27,2.688l21.577-9.928a5.481,5.481,0,1,0-4.582-9.959l-21.578,9.928A5.481,5.481,0,0,0,856.7,414.836Z" transform="translate(22.814 -1189.463)" fill="#192231"/>
    <path id="Path_7" data-name="Path 7" d="M861.458,481.562a5.481,5.481,0,0,0,5.481-5.481V452.33a5.481,5.481,0,1,0-10.962,0v23.752a5.481,5.481,0,0,0,5.481,5.481Z" transform="translate(22.859 -1199.801)" fill="#192231"/>
    <path id="Path_8" data-name="Path 8" d="M866.3,285a5.391,5.391,0,0,0,1.088-4.284L864.4,263.165l-2.983-17.549a5.475,5.475,0,0,0-8.892-3.3l-13.707,11.358-8.258,6.843a52.031,52.031,0,0,0-16.67-.251l-7.954-6.592-13.707-11.358a5.475,5.475,0,0,0-8.891,3.3l-2.983,17.549-2.983,17.549a5.421,5.421,0,0,0,.239,2.751A52.368,52.368,0,1,0,866.3,285Z" transform="translate(40.924 -1157.005)" fill="#192231"/>
    <path id="Path_9" data-name="Path 9" d="M794.908,251.728a2.729,2.729,0,0,0-.952.173,2.683,2.683,0,0,0-1.73,2.087l-3.618,21.282a2.711,2.711,0,0,0,3.615,3l20.239-7.508a2.711,2.711,0,0,0,.787-4.628h0l-16.621-13.773A2.687,2.687,0,0,0,794.908,251.728Z" transform="translate(36.877 -1159.224)" fill="#e6e6e6"/>
    <path id="Path_10" data-name="Path 10" d="M871.094,251.728a2.686,2.686,0,0,0-1.72.627l-16.622,13.774a2.711,2.711,0,0,0,.787,4.628l20.239,7.508a2.711,2.711,0,0,0,3.615-3l-3.618-21.282a2.683,2.683,0,0,0-1.73-2.087A2.729,2.729,0,0,0,871.094,251.728Z" transform="translate(23.733 -1159.224)" fill="#e6e6e6"/>
    <circle id="Ellipse_2" data-name="Ellipse 2" cx="7.308" cy="7.308" r="7.308" transform="translate(855.083 -844.914)" fill="#e6e6e6"/>
    <ellipse id="Ellipse_3" data-name="Ellipse 3" cx="4.872" cy="1.827" rx="4.872" ry="1.827" transform="translate(857.519 -843.088)" fill="#3f3d56"/>
    <path id="Path_11" data-name="Path 11" d="M675.14,125.04h6.7v8.222a3.35,3.35,0,0,1-3.35,3.35h0a3.35,3.35,0,0,1-3.35-3.35V125.04Z" transform="translate(183.598 -958.383)" fill="#ff6584"/>
    <path id="Path_12" data-name="Path 12" d="M834.355,240.69c-.351.728-.693,1.465-1.013,2.216a52.131,52.131,0,0,0-3.684,27.994c.686-.995,1.406-2.031,2.139-3.079A52.1,52.1,0,0,1,834.355,240.69Z" transform="translate(28.443 -1156.928)" fill="#192231"/>
    <path id="Path_13" data-name="Path 13" d="M841.275,249.148c-.351.728-.692,1.465-1.013,2.216a52.133,52.133,0,0,0-3.684,27.994c.686-.995,1.406-2.031,2.139-3.079A52.1,52.1,0,0,1,841.275,249.148Z" transform="translate(27.004 -1158.687)" fill="#192231"/>
    <path id="Path_14" data-name="Path 14" d="M851.7,409.309l-.772-9.82-.772-9.82a3.03,3.03,0,0,0-4.736-2.26l-8.118,5.579-5.928,4.074a4.036,4.036,0,0,0-6.138,0l-5.928-4.074-8.118-5.579a3.03,3.03,0,0,0-4.736,2.26l-.772,9.82-.772,9.82a3.03,3.03,0,0,0,4.325,2.972l8.89-4.241,7.3-3.485a4.04,4.04,0,0,0,5.752,0l7.3,3.485,8.89,4.241a3.03,3.03,0,0,0,4.325-2.972Z" transform="translate(33.481 -1187.33)" fill="#9fef00"/>
    <circle id="Ellipse_4" data-name="Ellipse 4" cx="1.827" cy="1.827" r="1.827" transform="translate(850.821 -847.35)" fill="#e6e6e6"/>
    <circle id="Ellipse_5" data-name="Ellipse 5" cx="1.827" cy="1.827" r="1.827" transform="translate(870.309 -847.35)" fill="#e6e6e6"/>
    <path id="Path_15" data-name="Path 15" d="M379.208,442.9c.445.006.889.012,1.34.012s.9-.006,1.34-.012c23.569-.536,40.652-15.262,36.3-30.713l-10.6-37.692-2.68-9.537-47.5.81-2.887,9.33-11.364,36.724C338.342,427.355,355.425,442.361,379.208,442.9Z" transform="translate(129.675 -1182.771)" fill="#192231"/>
    <path id="Path_16" data-name="Path 16" d="M357.715,375.1a52.434,52.434,0,0,0,53.07-.6l-2.68-9.538-47.5.81Z" transform="translate(126.477 -1182.771)" opacity="0.2"/>
    <path id="Path_17" data-name="Path 17" d="M332.508,406.782c-5.127-6.034-15.944-13.12-38.731-17.049-39.743-6.856-29.4-31-28.943-32.024.963-2.147-.011-3.586-2.195-3.2a8.889,8.889,0,0,0-5.755,4.567c-.587,1.255-13.854,30.818,30.99,38.551,40.36,6.962,40.5,23.912,40.493,24.08-.107,1.871,1.757,2.445,4.168,1.283s4.455-3.619,4.566-5.49C337.125,417.105,337.283,412.4,332.508,406.782Z" transform="translate(147.92 -1180.585)" fill="#192231"/>
    <path id="Path_18" data-name="Path 18" d="M416.822,461.183A5.481,5.481,0,0,0,422.3,455.7V431.95a5.481,5.481,0,0,0-10.962,0V455.7a5.481,5.481,0,0,0,5.482,5.482Z" transform="translate(115.325 -1195.563)" fill="#192231"/>
    <path id="Path_19" data-name="Path 19" d="M412.061,394.457a5.481,5.481,0,0,0,7.271,2.689l21.578-9.928a5.481,5.481,0,0,0-4.582-9.959l-21.578,9.928A5.481,5.481,0,0,0,412.061,394.457Z" transform="translate(115.28 -1185.225)" fill="#192231"/>
    <path id="Path_20" data-name="Path 20" d="M360.554,394.457a5.481,5.481,0,0,1-7.27,2.689l-21.578-9.928a5.481,5.481,0,1,1,4.582-9.959l21.578,9.928A5.481,5.481,0,0,1,360.554,394.457Z" transform="translate(132.55 -1185.225)" fill="#192231"/>
    <path id="Path_21" data-name="Path 21" d="M361.459,461.183a5.481,5.481,0,0,1-5.481-5.481V431.95a5.481,5.481,0,1,1,10.962,0V455.7a5.481,5.481,0,0,1-5.482,5.482Z" transform="translate(126.839 -1195.563)" fill="#192231"/>
    <path id="Path_22" data-name="Path 22" d="M420.676,263.086a5.421,5.421,0,0,0,.239-2.751l-2.983-17.549-2.983-17.549a5.475,5.475,0,0,0-8.892-3.3L392.351,233.3l-7.955,6.591a52.031,52.031,0,0,0-16.67.251l-8.258-6.843-13.706-11.358a5.475,5.475,0,0,0-8.892,3.3l-2.983,17.549L330.9,260.335a5.39,5.39,0,0,0,1.088,4.284,52.383,52.383,0,1,0,88.684-1.532Z" transform="translate(133.399 -1152.767)" fill="#192231"/>
    <path id="Path_23" data-name="Path 23" d="M422.429,231.975l-16.621,13.774h0a2.711,2.711,0,0,0,.787,4.628l20.239,7.508a2.711,2.711,0,0,0,3.615-3l-3.618-21.282a2.683,2.683,0,0,0-1.73-2.087,2.729,2.729,0,0,0-.952-.173A2.687,2.687,0,0,0,422.429,231.975Z" transform="translate(116.68 -1154.986)" fill="#e6e6e6"/>
    <path id="Path_24" data-name="Path 24" d="M347.013,231.521a2.683,2.683,0,0,0-1.73,2.087l-3.618,21.282a2.711,2.711,0,0,0,3.615,3l20.239-7.508a2.711,2.711,0,0,0,.787-4.628l-16.622-13.774a2.687,2.687,0,0,0-1.72-.627A2.73,2.73,0,0,0,347.013,231.521Z" transform="translate(129.823 -1154.986)" fill="#e6e6e6"/>
    <circle id="Ellipse_6" data-name="Ellipse 6" cx="7.308" cy="7.308" r="7.308" transform="translate(502.914 -861.056)" fill="#e6e6e6"/>
    <ellipse id="Ellipse_7" data-name="Ellipse 7" cx="4.872" cy="1.827" rx="4.872" ry="1.827" transform="translate(505.35 -859.229)" fill="#3f3d56"/>
    <path id="Path_25" data-name="Path 25" d="M3.35,0h0A3.35,3.35,0,0,1,6.7,3.349v8.222H0V3.35A3.35,3.35,0,0,1,3.35,0Z" transform="translate(513.876 -837.913) rotate(180)" fill="#ff6584"/>
    <path id="Path_26" data-name="Path 26" d="M390.066,220.31c.351.729.692,1.465,1.013,2.216a52.13,52.13,0,0,1,3.684,27.994c-.686-.995-1.406-2.031-2.139-3.079A52.1,52.1,0,0,0,390.066,220.31Z" transform="translate(119.75 -1152.69)" fill="#192231"/>
    <path id="Path_27" data-name="Path 27" d="M383.146,228.768c.351.728.692,1.465,1.013,2.216a52.13,52.13,0,0,1,3.684,27.994c-.686-.995-1.406-2.031-2.139-3.079a52.1,52.1,0,0,0-2.558-27.131Z" transform="translate(121.189 -1154.449)" fill="#192231"/>
    <path id="Path_28" data-name="Path 28" d="M361.808,254.368l.772-9.82.772-9.82a3.03,3.03,0,0,1,4.736-2.26l8.118,5.579,5.928,4.074a4.036,4.036,0,0,1,6.138,0l5.928-4.074,8.118-5.579a3.03,3.03,0,0,1,4.736,2.26l.772,9.82.772,9.82a3.03,3.03,0,0,1-4.325,2.972l-8.89-4.242-7.3-3.485a4.04,4.04,0,0,1-5.751,0l-7.3,3.485-8.891,4.241a3.03,3.03,0,0,1-4.324-2.972Z" transform="translate(125.628 -1155.108)" fill="#9fef00"/>
    <path id="Path_29" data-name="Path 29" d="M400.575,309.112c0,1.009.818,0,1.827,0s1.827,1.009,1.827,0a1.827,1.827,0,0,0-3.654,0Z" transform="translate(117.564 -1170.778)" fill="#e6e6e6"/>
    <path id="Path_30" data-name="Path 30" d="M379.624,309.112c0,1.009-.818,0-1.827,0s-1.827,1.009-1.827,0a1.827,1.827,0,0,1,3.654,0Z" transform="translate(122.681 -1170.778)" fill="#e6e6e6"/>
    <path id="Path_31" data-name="Path 31" d="M465.8,260.4V248.788H407.736V365.65H465.8V354.036H419.35V260.4Z" transform="translate(239.207 -984.118)" fill="#192231"/>
    <path id="Path_32" data-name="Path 32" d="M672.253,469.1V585.96h58.068V469.1Zm46.454,105.248H683.867V480.712h34.841Z" transform="translate(61.066 -1204.428)" fill="#9fef00"/>
    <path id="Path_33" data-name="Path 33" d="M310.295,354.227V249.7H298.681V365.84h58.068V354.227Z" transform="translate(261.886 -984.309)" fill="#9fef00"/>
    <path id="Path_34" data-name="Path 34" d="M250.444,260.4V248.788H192.376V365.65h58.068V354.036H203.99V312.663h46.454V301.049H203.99V260.4Z" transform="translate(283.993 -984.118)" fill="#192231"/>
    <path id="Path_35" data-name="Path 35" d="M824.126,260.4V248.788H766.058V365.65h58.068V354.036H777.672V312.663h46.454V301.049H777.672V260.4Z" transform="translate(164.69 -984.118)" fill="#9fef00"/>
    <path id="Path_36" data-name="Path 36" d="M123.545,249.61v95.983l-30.621-30.62-.07.071-.065-.065-31.3,31.3V249.247H49.872V365.382H61.486v-2.676L92.86,331.332l30.685,30.686v3.727h11.614V249.61Z" transform="translate(313.629 -984.214)" fill="#9fef00"/>
    <path id="Path_37" data-name="Path 37" d="M698.144,249.61v2.676L666.77,283.66l-30.686-30.685v-3.727H624.47V365.382h11.614V269.4L666.7,300.019l.07-.071.064.064,31.3-31.3v97.036h11.613V249.61Z" transform="translate(194.135 -984.214)" fill="#192231"/>
    <circle id="Ellipse_8" data-name="Ellipse 8" cx="7.128" cy="7.128" r="7.128" transform="translate(582.265 -820.401)" fill="#9fef00"/>
    <circle id="Ellipse_9" data-name="Ellipse 9" cx="7.128" cy="7.128" r="7.128" transform="translate(406.432 -741.197)" fill="#9fef00"/>
    <circle id="Ellipse_10" data-name="Ellipse 10" cx="7.128" cy="7.128" r="7.128" transform="translate(547.415 -582.789)" fill="#9fef00"/>
    <circle id="Ellipse_11" data-name="Ellipse 11" cx="7.128" cy="7.128" r="7.128" transform="translate(726.416 -799.016)" fill="#9fef00"/>
    <circle id="Ellipse_12" data-name="Ellipse 12" cx="7.128" cy="7.128" r="7.128" transform="translate(936.307 -589.126)" fill="#9fef00"/>
    <circle id="Ellipse_13" data-name="Ellipse 13" cx="7.128" cy="7.128" r="7.128" transform="translate(943.435 -776.047)" fill="#9fef00"/>
    <circle id="Ellipse_14" data-name="Ellipse 14" cx="7.128" cy="7.128" r="7.128" transform="translate(853.143 -647.737)" fill="#9fef00"/>
  </g>
</svg>
